<?xml version="1.0" encoding="utf-8"?>
<!-- Generator: Adobe Illustrator 17.0.0, SVG Export Plug-In . SVG Version: 6.00 Build 0)  -->
<!DOCTYPE svg PUBLIC "-//W3C//DTD SVG 1.0//EN" "http://www.w3.org/TR/2001/REC-SVG-20010904/DTD/svg10.dtd">
<svg version="1.0" id="Layer_1" xmlns="http://www.w3.org/2000/svg" xmlns:xlink="http://www.w3.org/1999/xlink" x="0px" y="0px"
	 width="990px" height="530px" viewBox="0 0 990 530" enable-background="new 0 0 990 530" xml:space="preserve">
<path fill-rule="evenodd" clip-rule="evenodd" fill="#6583B9" d="M493.378,499.877c256.643,0,464.697-105.439,464.697-235.499
	c0-130.06-208.054-235.499-464.697-235.499c-256.642,0-464.698,105.439-464.698,235.499
	C28.68,394.438,236.736,499.877,493.378,499.877L493.378,499.877z"/>
<path fill-rule="evenodd" clip-rule="evenodd" fill="#FFFFFF" d="M587.512,340.494l23.052-118.634
	c5.201-26.774,0.875-46.749-12.856-59.366c-13.299-12.214-35.876-18.152-69.022-18.152h-39.917l11.424-58.776
	c0.428-2.217-0.152-4.508-1.585-6.25c-1.44-1.742-3.576-2.751-5.833-2.751H437.68c-3.619,0-6.727,2.565-7.42,6.117l-24.477,125.945
	c-2.227-14.173-7.711-26.355-16.488-36.406c-16.161-18.498-41.723-27.878-75.982-27.878H206.524c-3.619,0-6.728,2.565-7.418,6.116
	L149.557,405.39c-0.432,2.212,0.15,4.503,1.587,6.244c1.437,1.744,3.571,2.751,5.831,2.751h55.532c3.616,0,6.727-2.565,7.418-6.115
	l11.985-61.661h41.339c21.693,0,39.914-2.354,54.144-6.986c14.549-4.731,27.939-12.752,39.742-23.802
	c9.535-8.761,17.415-18.571,23.477-29.153l-9.898,50.943c-0.432,2.213,0.151,4.505,1.585,6.246c1.437,1.741,3.574,2.752,5.831,2.752
	h55.097c3.617,0,6.726-2.565,7.416-6.115l27.193-139.936h37.806c16.11,0,20.825,3.208,22.107,4.587
	c1.166,1.258,3.587,5.693,0.873,19.669l-21.918,112.796c-0.433,2.217,0.15,4.505,1.585,6.246c1.437,1.741,3.576,2.752,5.832,2.752
	h55.972C583.71,346.609,586.82,344.045,587.512,340.494L587.512,340.494z M332.078,242.475
	c-3.461,17.783-9.983,30.466-19.385,37.706c-9.552,7.354-24.834,11.088-45.415,11.088h-24.614l17.8-91.581h31.82
	c23.377,0,32.795,4.997,36.578,9.181C334.102,214.683,335.213,226.306,332.078,242.475L332.078,242.475z"/>
<path fill-rule="evenodd" clip-rule="evenodd" fill="#FFFFFF" d="M819.597,172.22c-16.158-18.498-41.722-27.878-75.979-27.878
	H636.827c-3.617,0-6.727,2.565-7.418,6.116L579.863,405.39c-0.432,2.212,0.15,4.503,1.585,6.244
	c1.437,1.744,3.574,2.751,5.831,2.751h55.532c3.617,0,6.73-2.565,7.421-6.115l11.982-61.661h41.338
	c21.698,0,39.915-2.354,54.147-6.986c14.548-4.731,27.937-12.752,39.742-23.802c9.842-9.048,17.943-19.2,24.081-30.183
	c6.128-10.967,10.535-23.208,13.095-36.382C840.932,216.772,835.879,190.857,819.597,172.22L819.597,172.22z M765.529,242.475
	c-3.46,17.783-9.982,30.466-19.384,37.706c-9.555,7.354-24.832,11.088-45.415,11.088h-24.614l17.798-91.581h31.821
	c23.377,0,32.795,4.997,36.58,9.181C767.555,214.683,768.669,226.306,765.529,242.475L765.529,242.475z"/>
<g>
	<path fill-rule="evenodd" clip-rule="evenodd" d="M383.604,177.193c-14.731-16.864-38.167-25.293-70.291-25.293H206.524
		l-49.549,254.932h55.532l13.175-67.779h47.567c20.989,0,38.253-2.201,51.808-6.618c13.555-4.402,25.876-11.797,36.964-22.176
		c9.306-8.552,16.835-17.99,22.601-28.305c5.761-10.312,9.853-21.693,12.272-34.14C402.769,217.593,398.336,194.055,383.604,177.193
		z M339.496,243.918c-3.842,19.732-11.235,33.813-22.195,42.252c-10.957,8.439-27.634,12.654-50.023,12.654h-33.781l20.737-106.694
		h38.05c21.098,0,35.161,3.894,42.188,11.682C341.498,211.6,343.169,224.972,339.496,243.918z"/>
	<path fill-rule="evenodd" clip-rule="evenodd" d="M592.596,168.058c-11.725-10.77-33.028-16.158-63.91-16.158h-49.084
		l13.173-67.778H437.68l-49.549,254.93h55.097l28.382-146.049h44.034c14.094,0,23.311,2.337,27.643,7
		c4.332,4.669,5.248,13.422,2.754,26.252l-21.918,112.796h55.972l23.052-118.629C607.833,196.29,604.321,178.832,592.596,168.058z"
		/>
	<path fill-rule="evenodd" clip-rule="evenodd" d="M817.058,177.193c-14.734-16.864-38.165-25.293-70.292-25.293H639.973
		l-49.544,254.932h55.533l13.17-67.779h47.567c20.989,0,38.256-2.201,51.809-6.618c13.555-4.402,25.878-11.797,36.964-22.176
		c9.306-8.552,16.835-17.99,22.603-28.305c5.758-10.312,9.852-21.693,12.271-34.14C836.22,217.593,831.791,194.055,817.058,177.193z
		 M772.946,243.918c-3.839,19.732-11.231,33.813-22.193,42.252c-10.957,8.439-27.635,12.654-50.022,12.654h-33.781l20.736-106.694
		h38.05c21.099,0,35.159,3.894,42.189,11.682C774.948,211.6,776.622,224.972,772.946,243.918z"/>
</g>
</svg>
